<svg version="1.1" id="Layer_1" xmlns="http://www.w3.org/2000/svg" xmlns:xlink="http://www.w3.org/1999/xlink" x="0px" y="0px"
	 width="100%" viewBox="0 0 500 500" enable-background="new 0 0 500 500" xml:space="preserve">
<path fill="#545454" opacity="1.000000" stroke="none" 
	d="
M237.000000,501.000000 
	C158.000015,501.000000 79.500038,501.000000 1.000042,501.000000 
	C1.000028,334.333405 1.000028,167.666779 1.000014,1.000132 
	C167.666565,1.000088 334.333130,1.000088 500.999756,1.000044 
	C500.999847,167.666519 500.999847,334.333038 500.999939,500.999786 
	C413.166656,501.000000 325.333344,501.000000 237.000000,501.000000 
M183.237122,355.644012 
	C185.182526,355.454010 187.127914,355.264008 189.586670,354.959290 
	C189.749619,354.662842 189.912567,354.366364 190.623825,353.696716 
	C190.448822,351.433136 190.273819,349.169525 189.977188,346.395782 
	C189.684326,346.228516 189.391464,346.061218 188.760605,345.340118 
	C186.804428,345.523254 184.848251,345.706360 182.383469,346.015808 
	C182.217712,346.309479 182.051971,346.603119 181.333054,347.271423 
	C181.521759,349.546387 181.710480,351.821381 182.023804,354.606812 
	C182.319061,354.770111 182.614334,354.933441 183.237122,355.644012 
M337.770233,346.054688 
	C338.823944,345.815277 339.877655,345.575897 340.931366,345.336487 
	C340.733063,344.869385 340.534790,344.402283 340.336487,343.935150 
	C339.200806,344.608612 338.065094,345.282043 336.478546,346.203705 
	C335.763550,346.498047 335.048553,346.792358 334.333588,347.086670 
	C334.730591,347.451477 335.127625,347.816284 335.524658,348.181091 
	C336.039917,347.481506 336.555145,346.781891 337.770233,346.054688 
M137.019852,354.972687 
	C137.019852,354.972687 136.936874,354.982635 136.800751,355.683350 
	C138.221939,355.816132 140.081253,356.570221 140.967926,355.945007 
	C142.538910,354.837250 144.406036,352.948669 144.513596,351.281342 
	C144.637894,349.354675 143.411316,346.870117 141.952515,345.498810 
	C141.151306,344.745636 138.665298,345.784760 137.016434,346.022766 
	C137.016434,346.022766 137.023834,345.945312 136.452881,345.473663 
	C135.729630,346.611145 135.006378,347.748627 133.868759,349.318542 
	C133.920853,350.214874 133.972946,351.111237 134.076263,352.734772 
	C135.060974,353.508392 136.045670,354.281982 137.019852,354.972687 
M205.159042,146.315231 
	C204.037231,146.002136 202.926971,145.637360 201.791916,145.383484 
	C169.854874,138.240433 141.766449,144.837967 119.811340,170.002457 
	C103.064011,189.197891 98.172050,212.397079 101.025429,237.242249 
	C108.457314,301.953705 175.067978,325.372040 221.256134,298.095673 
	C247.995117,282.304993 259.510040,257.499939 260.216492,227.131348 
	C261.099182,189.188660 240.015152,158.032471 205.159042,146.315231 
M291.180969,222.343353 
	C310.169037,249.081696 329.136841,275.834503 348.200256,302.518982 
	C349.237976,303.971588 350.960938,305.604889 352.561951,305.846039 
	C355.950287,306.356476 359.468964,306.001587 363.163635,306.001587 
	C363.163635,252.503693 363.163635,199.420395 363.163635,146.178406 
	C358.725769,146.178406 354.517548,146.178406 350.207916,146.178406 
	C350.207916,147.841324 350.130981,149.156799 350.219055,150.461121 
	C353.293030,195.984924 356.394714,241.506866 359.424225,287.033600 
	C359.542114,288.805786 358.989716,290.622528 358.749634,292.418518 
	C358.145630,292.617310 357.541626,292.816071 356.937622,293.014862 
	C331.499603,257.136353 306.061584,221.257858 280.149231,184.710327 
	C278.860535,197.350769 278.417999,208.710220 287.876617,217.698746 
	C289.061127,218.824387 289.837341,220.379700 291.180969,222.343353 
M251.529129,354.391632 
	C257.156036,352.986389 251.606003,348.788116 253.421051,347.060669 
	C253.106339,347.845001 252.568344,349.185791 252.030350,350.526581 
	C251.537109,350.768585 251.043884,351.010590 250.550644,351.252563 
	C249.345657,348.852020 248.140656,346.451477 246.935669,344.050934 
	C246.551163,344.588531 246.166672,345.126129 245.782166,345.663727 
	C245.782166,349.007843 245.782166,352.351959 245.782166,355.696045 
	C246.110504,355.674530 246.438843,355.653015 246.767181,355.631470 
	C246.952988,353.642700 247.138794,351.653900 247.418350,348.661530 
	C249.048645,351.038330 250.056946,352.508331 251.529129,354.391632 
M205.339249,349.788818 
	C205.429382,351.789490 205.519516,353.790161 205.609650,355.790833 
	C205.973953,355.779694 206.338242,355.768585 206.702545,355.757446 
	C206.948532,354.255890 207.194534,352.754333 207.446365,351.217102 
	C209.195709,351.217102 210.655609,351.217102 212.189377,351.217102 
	C212.547043,352.860077 212.870865,354.347534 213.194672,355.834991 
	C213.360565,355.803955 213.526443,355.772888 213.692337,355.741852 
	C213.692337,352.261566 213.692337,348.781311 213.692337,345.301056 
	C213.323563,349.376709 211.208511,350.237396 207.528610,349.159698 
	C207.196899,347.836639 206.849609,346.451538 206.502335,345.066406 
	C206.229752,345.116119 205.957153,345.165802 205.684570,345.215485 
	C205.569580,346.471100 205.454590,347.726685 205.339249,349.788818 
M315.899658,354.906311 
	C314.652191,354.207458 313.404724,353.508636 312.157257,352.809784 
	C311.948761,353.308655 311.740295,353.807526 311.531799,354.306396 
	C313.224396,354.965179 314.921509,356.131195 316.608185,356.116333 
	C317.872772,356.105164 319.124023,354.574585 320.381195,353.720490 
	C318.369263,351.594696 316.357300,349.468872 313.234711,346.169586 
	C316.067688,346.652649 317.981323,346.978943 319.894928,347.305237 
	C318.373322,345.852509 316.540497,344.999115 314.698547,344.978973 
	C313.828918,344.969482 312.941833,346.557404 312.062622,347.421509 
	C313.355957,348.640015 314.621033,349.890503 315.952454,351.065857 
	C316.858795,351.865997 317.857941,352.560974 318.815613,353.302948 
	C318.077179,353.837921 317.338776,354.372864 315.899658,354.906311 
M272.895966,350.981110 
	C273.724243,350.923096 274.552521,350.865112 275.627899,350.789825 
	C273.557495,349.703857 271.981476,348.877228 270.405487,348.050568 
	C272.201813,347.070618 273.998108,346.090637 275.680298,345.172913 
	C273.573425,345.172913 271.340393,345.172913 269.204712,345.172913 
	C269.204712,348.940033 269.204712,352.364594 269.204712,355.633362 
	C271.753967,355.633362 273.983429,355.633362 276.212860,355.633362 
	C274.751282,354.889984 273.139160,355.171783 271.915466,354.609009 
	C269.736023,353.606659 269.273621,352.145660 272.895966,350.981110 
M339.820496,355.093781 
	C339.114014,355.249786 338.407562,355.405762 337.701080,355.561768 
	C338.103210,355.966522 338.505371,356.371246 338.907532,356.776001 
	C339.343933,356.230194 339.780365,355.684387 339.820496,355.093781 
z"/>
<path fill="#F5F1F0" opacity="1.000000" stroke="none" 
	d="
M205.519562,146.484436 
	C240.015152,158.032471 261.099182,189.188660 260.216492,227.131348 
	C259.510040,257.499939 247.995117,282.304993 221.256134,298.095673 
	C175.067978,325.372040 108.457314,301.953705 101.025429,237.242249 
	C98.172050,212.397079 103.064011,189.197891 119.811340,170.002457 
	C141.766449,144.837967 169.854874,138.240433 201.791916,145.383484 
	C202.926971,145.637360 204.037231,146.002136 205.519562,146.484436 
M140.290024,291.242249 
	C167.733093,313.966583 206.992432,309.935669 229.210464,282.112488 
	C252.507599,252.937973 253.698853,203.336563 231.830505,173.021332 
	C207.388397,139.138214 160.950653,136.267181 133.365616,167.308273 
	C117.196907,185.502686 112.112335,207.665604 113.306442,231.375839 
	C114.468750,254.455078 121.920570,274.996918 140.290024,291.242249 
z"/>
<path fill="#F7F3F2" opacity="1.000000" stroke="none" 
	d="
M290.991882,222.039642 
	C289.837341,220.379700 289.061127,218.824387 287.876617,217.698746 
	C278.417999,208.710220 278.860535,197.350769 280.149231,184.710327 
	C306.061584,221.257858 331.499603,257.136353 356.937622,293.014862 
	C357.541626,292.816071 358.145630,292.617310 358.749634,292.418518 
	C358.989716,290.622528 359.542114,288.805786 359.424225,287.033600 
	C356.394714,241.506866 353.293030,195.984924 350.219055,150.461121 
	C350.130981,149.156799 350.207916,147.841324 350.207916,146.178406 
	C354.517548,146.178406 358.725769,146.178406 363.163635,146.178406 
	C363.163635,199.420395 363.163635,252.503693 363.163635,306.001587 
	C359.468964,306.001587 355.950287,306.356476 352.561951,305.846039 
	C350.960938,305.604889 349.237976,303.971588 348.200256,302.518982 
	C329.136841,275.834503 310.169037,249.081696 290.991882,222.039642 
z"/>
<path fill="#C7C5C4" opacity="1.000000" stroke="none" 
	d="
M251.297180,354.184998 
	C250.056946,352.508331 249.048645,351.038330 247.418350,348.661530 
	C247.138794,351.653900 246.952988,353.642700 246.767181,355.631470 
	C246.438843,355.653015 246.110504,355.674530 245.782166,355.696045 
	C245.782166,352.351959 245.782166,349.007843 245.782166,345.663727 
	C246.166672,345.126129 246.551163,344.588531 246.935669,344.050934 
	C248.140656,346.451477 249.345657,348.852020 250.550644,351.252563 
	C251.043884,351.010590 251.537109,350.768585 252.030350,350.526581 
	C252.568344,349.185791 253.106339,347.845001 253.421051,347.060669 
	C251.606003,348.788116 257.156036,352.986389 251.297180,354.184998 
z"/>
<path fill="#DCD9D8" opacity="1.000000" stroke="none" 
	d="
M205.339417,349.385559 
	C205.454590,347.726685 205.569580,346.471100 205.684570,345.215485 
	C205.957153,345.165802 206.229752,345.116119 206.502335,345.066406 
	C206.849609,346.451538 207.196899,347.836639 207.528610,349.159698 
	C211.208511,350.237396 213.323563,349.376709 213.692337,345.301056 
	C213.692337,348.781311 213.692337,352.261566 213.692337,355.741852 
	C213.526443,355.772888 213.360565,355.803955 213.194672,355.834991 
	C212.870865,354.347534 212.547043,352.860077 212.189377,351.217102 
	C210.655609,351.217102 209.195709,351.217102 207.446365,351.217102 
	C207.194534,352.754333 206.948532,354.255890 206.702545,355.757446 
	C206.338242,355.768585 205.973953,355.779694 205.609650,355.790833 
	C205.519516,353.790161 205.429382,351.789490 205.339417,349.385559 
z"/>
<path fill="#DDDAD9" opacity="1.000000" stroke="none" 
	d="
M316.250000,354.907074 
	C317.338776,354.372864 318.077179,353.837921 318.815613,353.302948 
	C317.857941,352.560974 316.858795,351.865997 315.952454,351.065857 
	C314.621033,349.890503 313.355957,348.640015 312.062622,347.421509 
	C312.941833,346.557404 313.828918,344.969482 314.698547,344.978973 
	C316.540497,344.999115 318.373322,345.852509 319.894928,347.305237 
	C317.981323,346.978943 316.067688,346.652649 313.234711,346.169586 
	C316.357300,349.468872 318.369263,351.594696 320.381195,353.720490 
	C319.124023,354.574585 317.872772,356.105164 316.608185,356.116333 
	C314.921509,356.131195 313.224396,354.965179 311.531799,354.306396 
	C311.740295,353.807526 311.948761,353.308655 312.157257,352.809784 
	C313.404724,353.508636 314.652191,354.207458 316.250000,354.907074 
z"/>
<path fill="#5B5A5A" opacity="1.000000" stroke="none" 
	d="
M134.025040,352.007568 
	C133.972946,351.111237 133.920853,350.214874 134.389221,349.059448 
	C135.614410,347.848694 136.319122,346.897003 137.023834,345.945312 
	C137.023834,345.945312 137.016434,346.022766 137.374680,346.089386 
	C140.988617,345.708740 142.899551,346.989380 142.990082,350.399750 
	C143.103897,354.686005 140.158386,355.042603 136.936874,354.982635 
	C136.936874,354.982635 137.019852,354.972687 137.003174,354.672424 
	C135.999344,353.583954 135.012192,352.795746 134.025040,352.007568 
z"/>
<path fill="#F0ECEB" opacity="1.000000" stroke="none" 
	d="
M272.451416,350.997864 
	C269.273621,352.145660 269.736023,353.606659 271.915466,354.609009 
	C273.139160,355.171783 274.751282,354.889984 276.212860,355.633362 
	C273.983429,355.633362 271.753967,355.633362 269.204712,355.633362 
	C269.204712,352.364594 269.204712,348.940033 269.204712,345.172913 
	C271.340393,345.172913 273.573425,345.172913 275.680298,345.172913 
	C273.998108,346.090637 272.201813,347.070618 270.405487,348.050568 
	C271.981476,348.877228 273.557495,349.703857 275.627899,350.789825 
	C274.552521,350.865112 273.724243,350.923096 272.451416,350.997864 
z"/>
<path fill="#DBD7D7" opacity="1.000000" stroke="none" 
	d="
M136.868805,355.333008 
	C140.158386,355.042603 143.103897,354.686005 142.990082,350.399750 
	C142.899551,346.989380 140.988617,345.708740 137.335938,346.085907 
	C138.665298,345.784760 141.151306,344.745636 141.952515,345.498810 
	C143.411316,346.870117 144.637894,349.354675 144.513596,351.281342 
	C144.406036,352.948669 142.538910,354.837250 140.967926,355.945007 
	C140.081253,356.570221 138.221939,355.816132 136.868805,355.333008 
z"/>
<path fill="#565656" opacity="1.000000" stroke="none" 
	d="
M336.929413,345.955505 
	C338.065094,345.282043 339.200806,344.608612 340.336487,343.935150 
	C340.534790,344.402283 340.733063,344.869385 340.931366,345.336487 
	C339.877655,345.575897 338.823944,345.815277 337.386108,346.035583 
	C337.002014,346.016510 336.929413,345.955505 336.929413,345.955505 
z"/>
<path fill="#E9E5E4" opacity="1.000000" stroke="none" 
	d="
M181.899200,354.096344 
	C181.710480,351.821381 181.521759,349.546387 181.820038,347.250000 
	C182.448410,347.337738 182.589798,347.446930 182.599518,347.910583 
	C182.551682,349.975555 182.635529,351.686157 182.513672,353.570831 
	C182.171692,353.862061 182.035431,353.979187 181.899200,354.096344 
z"/>
<path fill="#E9E5E4" opacity="1.000000" stroke="none" 
	d="
M190.098816,346.905945 
	C190.273819,349.169525 190.448822,351.433136 190.143402,353.716003 
	C189.524506,353.624939 189.386047,353.514587 189.375320,353.052612 
	C189.421432,351.005219 189.339813,349.309418 189.469070,347.437561 
	C189.819565,347.142975 189.959183,347.024445 190.098816,346.905945 
z"/>
<path fill="#E9E5E4" opacity="1.000000" stroke="none" 
	d="
M182.892075,345.889496 
	C184.848251,345.706360 186.804428,345.523254 188.764008,345.816315 
	C188.658188,346.426300 188.548965,346.560089 188.117401,346.522522 
	C186.388779,346.448853 184.982513,346.546631 183.405731,346.455200 
	C183.120834,346.140503 183.006454,346.015015 182.892075,345.889496 
z"/>
<path fill="#565656" opacity="1.000000" stroke="none" 
	d="
M340.018646,355.116150 
	C339.780365,355.684387 339.343933,356.230194 338.907532,356.776001 
	C338.505371,356.371246 338.103210,355.966522 337.701080,355.561768 
	C338.407562,355.405762 339.114014,355.249786 340.018646,355.116150 
z"/>
<path fill="#E9E5E4" opacity="1.000000" stroke="none" 
	d="
M189.073318,355.074036 
	C187.127914,355.264008 185.182526,355.454010 183.235809,355.176941 
	C183.341797,354.580048 183.449097,354.450226 183.881699,354.482483 
	C185.604584,354.540405 187.002151,354.436249 188.567581,354.518066 
	C188.848053,354.827423 188.960693,354.950745 189.073318,355.074036 
z"/>
<path fill="#DBD7D7" opacity="1.000000" stroke="none" 
	d="
M136.738358,345.709473 
	C136.319122,346.897003 135.614410,347.848694 134.596405,348.843262 
	C135.006378,347.748627 135.729630,346.611145 136.738358,345.709473 
z"/>
<path fill="#DBD7D7" opacity="1.000000" stroke="none" 
	d="
M134.050659,352.371155 
	C135.012192,352.795746 135.999344,353.583954 137.008438,354.713867 
	C136.045670,354.281982 135.060974,353.508392 134.050659,352.371155 
z"/>
<path fill="#565656" opacity="1.000000" stroke="none" 
	d="
M337.036194,346.049377 
	C336.555145,346.781891 336.039917,347.481506 335.524658,348.181091 
	C335.127625,347.816284 334.730591,347.451477 334.333588,347.086670 
	C335.048553,346.792358 335.763550,346.498047 336.703979,346.079590 
	C336.929413,345.955505 337.002014,346.016510 337.036194,346.049377 
z"/>
<path fill="#E9E5E4" opacity="1.000000" stroke="none" 
	d="
M182.096634,347.062653 
	C182.051971,346.603119 182.217712,346.309479 182.637772,345.952637 
	C183.006454,346.015015 183.120834,346.140503 183.281708,346.622131 
	C183.147202,347.189484 182.948196,347.382141 182.731186,347.556152 
	C182.589798,347.446930 182.448410,347.337738 182.096634,347.062653 
z"/>
<path fill="#E9E5E4" opacity="1.000000" stroke="none" 
	d="
M188.933014,346.093231 
	C189.391464,346.061218 189.684326,346.228516 190.037994,346.650879 
	C189.959183,347.024445 189.819565,347.142975 189.317337,347.298340 
	C188.760513,347.139587 188.588837,346.925812 188.439728,346.693909 
	C188.548965,346.560089 188.658188,346.426300 188.933014,346.093231 
z"/>
<path fill="#E9E5E4" opacity="1.000000" stroke="none" 
	d="
M183.072052,354.903290 
	C182.614334,354.933441 182.319061,354.770111 181.961487,354.351562 
	C182.035431,353.979187 182.171692,353.862061 182.668701,353.710205 
	C183.227402,353.872284 183.403030,354.087250 183.556396,354.320435 
	C183.449097,354.450226 183.341797,354.580048 183.072052,354.903290 
z"/>
<path fill="#E9E5E4" opacity="1.000000" stroke="none" 
	d="
M189.869232,353.902588 
	C189.912567,354.366364 189.749619,354.662842 189.329987,355.016663 
	C188.960693,354.950745 188.848053,354.827423 188.692719,354.349213 
	C188.832031,353.780243 189.031219,353.583557 189.247574,353.404236 
	C189.386047,353.514587 189.524506,353.624939 189.869232,353.902588 
z"/>
<path fill="#555555" opacity="1.000000" stroke="none" 
	d="
M140.010529,291.021088 
	C121.920570,274.996918 114.468750,254.455078 113.306442,231.375839 
	C112.112335,207.665604 117.196907,185.502686 133.365616,167.308273 
	C160.950653,136.267181 207.388397,139.138214 231.830505,173.021332 
	C253.698853,203.336563 252.507599,252.937973 229.210464,282.112488 
	C206.992432,309.935669 167.733093,313.966583 140.010529,291.021088 
z"/>
<path fill="#5C5C5C" opacity="1.000000" stroke="none" 
	d="
M189.375320,353.052612 
	C189.031219,353.583557 188.832031,353.780243 188.524872,354.163208 
	C187.002151,354.436249 185.604584,354.540405 183.881699,354.482483 
	C183.403030,354.087250 183.227402,353.872284 182.874435,353.536133 
	C182.635529,351.686157 182.551682,349.975555 182.599518,347.910583 
	C182.948196,347.382141 183.147202,347.189484 183.452209,346.811340 
	C184.982513,346.546631 186.388779,346.448853 188.117401,346.522522 
	C188.588837,346.925812 188.760513,347.139587 189.106461,347.474426 
	C189.339813,349.309418 189.421432,351.005219 189.375320,353.052612 
z"/>
</svg>